<svg width="245" height="38" viewBox="0 0 245 38" fill="none" xmlns="http://www.w3.org/2000/svg">
<path d="M52.3208 27.446L52.3208 11.6954L56.0492 11.6954L60.9397 23.1421H61.0607L65.9512 11.6954L69.6796 11.6954L69.6796 27.446H67.0407V15.7017H66.9438L61.9081 27.446H59.9713L54.9839 15.7017H54.8871L54.8871 27.446H52.3208Z" fill="#E5E1D1"/>
<path d="M75.5958 27.446V11.6954L86.6841 11.6954V13.8932L78.3315 13.8932V18.4032L85.5462 18.4032V20.6009L78.3315 20.6009L78.3315 25.2483H86.6841V27.446L75.5958 27.446Z" fill="#E5E1D1"/>
<path d="M95.1685 27.446L95.1685 13.9619L90.1085 13.9619V11.6954L102.94 11.6954V13.9619L97.9042 13.9619V27.446H95.1685Z" fill="#E5E1D1"/>
<path d="M104.232 27.446L110.188 11.6954L113.771 11.6954L119.727 27.446H116.894L115.441 23.5542L108.42 23.5542L106.992 27.446L104.232 27.446ZM109.195 21.3564L114.642 21.3564L111.979 14.1908H111.858L109.195 21.3564Z" fill="#E5E1D1"/>
<path d="M123.929 27.446V11.6954L134.533 11.6954V13.8932L126.665 13.8932V18.7695L133.638 18.7695V20.9672L126.665 20.9672V27.446H123.929Z" fill="#E5E1D1"/>
<path d="M145.509 27.6292C144.186 27.6292 143.096 27.5605 142.241 27.4232C141.386 27.2705 140.708 27.0187 140.207 26.6677C139.707 26.3166 139.344 25.8359 139.118 25.2254C138.892 24.6149 138.747 23.8518 138.682 22.9361C138.618 22.0051 138.585 20.8833 138.585 19.5707C138.585 18.2582 138.618 17.144 138.682 16.2283C138.747 15.2973 138.892 14.5266 139.118 13.9161C139.344 13.3056 139.707 12.8248 140.207 12.4738C140.708 12.1228 141.386 11.8786 142.241 11.7412C143.096 11.5886 144.186 11.5123 145.509 11.5123C146.833 11.5123 147.922 11.5886 148.778 11.7412C149.649 11.8786 150.335 12.1228 150.836 12.4738C151.336 12.8248 151.699 13.3056 151.925 13.9161C152.167 14.5266 152.321 15.2973 152.385 16.2283C152.45 17.144 152.482 18.2582 152.482 19.5707C152.482 20.8833 152.45 22.0051 152.385 22.9361C152.321 23.8518 152.167 24.6149 151.925 25.2254C151.699 25.8359 151.336 26.3166 150.836 26.6677C150.335 27.0187 149.649 27.2705 148.778 27.4232C147.922 27.5605 146.833 27.6292 145.509 27.6292ZM145.509 25.4314C146.316 25.4314 146.978 25.4085 147.495 25.3628C148.027 25.317 148.439 25.2025 148.729 25.0194C149.036 24.8362 149.262 24.5386 149.407 24.1265C149.553 23.6992 149.641 23.1268 149.674 22.4095C149.722 21.6769 149.746 20.7307 149.746 19.5707C149.746 18.4108 149.722 17.4722 149.674 16.7548C149.641 16.0223 149.553 15.4499 149.407 15.0378C149.262 14.6105 149.036 14.3053 148.729 14.1221C148.439 13.939 148.027 13.8245 147.495 13.7787C146.978 13.7329 146.316 13.71 145.509 13.71C144.719 13.71 144.065 13.7329 143.548 13.7787C143.032 13.8245 142.62 13.939 142.314 14.1221C142.007 14.3053 141.781 14.6105 141.636 15.0378C141.507 15.4499 141.418 16.0223 141.369 16.7548C141.337 17.4722 141.321 18.4108 141.321 19.5707C141.321 20.7307 141.337 21.6769 141.369 22.4095C141.418 23.1268 141.507 23.6992 141.636 24.1265C141.781 24.5386 142.007 24.8362 142.314 25.0194C142.62 25.2025 143.032 25.317 143.548 25.3628C144.065 25.4085 144.719 25.4314 145.509 25.4314Z" fill="#E5E1D1"/>
<path d="M157.83 27.446V11.6954L165.602 11.6954C166.651 11.6954 167.498 11.8099 168.144 12.0388C168.79 12.2678 169.274 12.6035 169.597 13.0461C169.919 13.4735 170.137 13.9924 170.25 14.6029C170.363 15.1981 170.42 15.8544 170.42 16.5717C170.42 17.0906 170.363 17.663 170.25 18.2887C170.153 18.8992 169.927 19.4639 169.572 19.9828C169.233 20.4865 168.693 20.8528 167.95 21.0817L170.686 27.446H167.781L165.118 21.013L165.82 21.3564C165.707 21.4022 165.57 21.4327 165.408 21.448C165.263 21.448 165.085 21.448 164.876 21.448L160.566 21.448V27.446H157.83ZM160.566 19.2502H164.44C165.198 19.2502 165.796 19.2044 166.231 19.1129C166.667 19.006 166.99 18.8458 167.2 18.6321C167.41 18.4184 167.539 18.1437 167.587 17.8079C167.652 17.4722 167.684 17.0601 167.684 16.5717C167.684 16.068 167.652 15.6483 167.587 15.3126C167.539 14.9615 167.418 14.6868 167.224 14.4884C167.03 14.2747 166.716 14.1221 166.28 14.0305C165.86 13.939 165.279 13.8932 164.537 13.8932L160.566 13.8932V19.2502Z" fill="#E5E1D1"/>
<path d="M174.02 27.446L179.976 11.6954L183.559 11.6954L189.515 27.4461H186.682L185.229 23.5542L178.208 23.5542L176.78 27.446H174.02ZM178.983 21.3564L184.43 21.3564L181.767 14.1908H181.646L178.983 21.3564Z" fill="#E5E1D1"/>
<path d="M193.717 27.4461V11.6954L196.55 11.6954L204.176 22.5927H204.273V11.6954L206.888 11.6954V27.4461H204.273L196.429 16.2054H196.332V27.4461H193.717Z" fill="#E5E1D1"/>
<path d="M212.784 27.4461V11.6954L218.231 11.6954C219.635 11.6954 220.781 11.7641 221.669 11.9015C222.573 12.0236 223.283 12.2525 223.8 12.5883C224.316 12.924 224.687 13.3895 224.913 13.9848C225.155 14.58 225.309 15.3355 225.373 16.2512C225.438 17.1669 225.47 18.2734 225.47 19.5707C225.47 20.868 225.438 21.9745 225.373 22.8903C225.309 23.806 225.155 24.5615 224.913 25.1567C224.687 25.7519 224.316 26.2174 223.8 26.5532C223.283 26.889 222.573 27.1255 221.669 27.2629C220.781 27.385 219.635 27.4461 218.231 27.4461H212.784ZM215.52 25.2483H217.989C218.893 25.2483 219.635 25.233 220.217 25.2025C220.814 25.1567 221.282 25.0499 221.621 24.882C221.96 24.6988 222.21 24.4089 222.371 24.012C222.533 23.6152 222.629 23.0582 222.662 22.3408C222.71 21.6082 222.734 20.6849 222.734 19.5707C222.734 18.4566 222.71 17.5409 222.662 16.8235C222.629 16.1062 222.525 15.5491 222.347 15.1523C222.186 14.7402 221.927 14.4503 221.572 14.2824C221.233 14.0992 220.773 13.9924 220.192 13.9619C219.611 13.9161 218.877 13.8932 217.989 13.8932H215.52V25.2483Z" fill="#E5E1D1"/>
<path d="M237.201 27.6292C235.878 27.6292 234.788 27.5605 233.933 27.4232C233.077 27.2705 232.399 27.0187 231.899 26.6677C231.399 26.3166 231.036 25.8359 230.81 25.2254C230.584 24.6149 230.438 23.8518 230.374 22.9361C230.309 22.0051 230.277 20.8833 230.277 19.5707C230.277 18.2582 230.309 17.144 230.374 16.2283C230.438 15.2973 230.584 14.5266 230.81 13.9161C231.036 13.3056 231.399 12.8248 231.899 12.4738C232.399 12.1228 233.077 11.8786 233.933 11.7412C234.788 11.5886 235.878 11.5123 237.201 11.5123C238.525 11.5123 239.614 11.5886 240.47 11.7412C241.341 11.8786 242.027 12.1228 242.527 12.4738C243.028 12.8248 243.391 13.3056 243.617 13.9161C243.859 14.5266 244.012 15.2973 244.077 16.2283C244.141 17.144 244.174 18.2582 244.174 19.5707C244.174 20.8833 244.141 22.0051 244.077 22.9361C244.012 23.8518 243.859 24.6149 243.617 25.2254C243.391 25.8359 243.028 26.3166 242.527 26.6677C242.027 27.0187 241.341 27.2705 240.47 27.4232C239.614 27.5605 238.525 27.6292 237.201 27.6292ZM237.201 25.4314C238.008 25.4314 238.67 25.4085 239.186 25.3628C239.719 25.317 240.131 25.2025 240.421 25.0194C240.728 24.8362 240.954 24.5386 241.099 24.1265C241.244 23.6992 241.333 23.1268 241.365 22.4095C241.414 21.6769 241.438 20.7307 241.438 19.5707C241.438 18.4108 241.414 17.4722 241.365 16.7549C241.333 16.0223 241.244 15.4499 241.099 15.0379C240.954 14.6105 240.728 14.3053 240.421 14.1221C240.131 13.939 239.719 13.8245 239.186 13.7787C238.67 13.7329 238.008 13.71 237.201 13.71C236.41 13.71 235.757 13.7329 235.24 13.7787C234.724 13.8245 234.312 13.939 234.005 14.1221C233.699 14.3053 233.473 14.6105 233.327 15.0379C233.198 15.4499 233.11 16.0223 233.061 16.7549C233.029 17.4722 233.013 18.4108 233.013 19.5707C233.013 20.7307 233.029 21.6769 233.061 22.4095C233.11 23.1268 233.198 23.6992 233.327 24.1265C233.473 24.5386 233.699 24.8362 234.005 25.0194C234.312 25.2025 234.724 25.317 235.24 25.3628C235.757 25.4085 236.41 25.4314 237.201 25.4314Z" fill="#E5E1D1"/>
<path d="M18.0616 3.05176e-05L0 9.49751V28.4925L18.0616 37.9899L36.1281 28.4925V9.49751L18.0616 3.05176e-05ZM15.4643 9.90532C15.2006 12.9548 20.8529 10.4717 15.7579 5.95408C19.0965 6.36642 22.1118 9.57907 21.7336 12.6558C20.9176 19.4164 10.4986 15.1434 15.4643 9.90532ZM26.0127 24.6319L23.4602 20.8211L20.9077 24.6319L18.0616 28.8776L15.2155 24.6319L12.663 20.8211L10.1105 24.6319H4.41339L9.81197 16.5708H15.5091L18.0616 20.3815L20.6141 16.5708H26.3112L31.7147 24.6319H26.0127Z" fill="#E5E1D1"/>
</svg>
