<svg width="95" height="108" viewBox="0 0 95 108" fill="none" xmlns="http://www.w3.org/2000/svg">
<path d="M47.0904 0L0 27V81L47.0904 108L94.1938 81V27L47.0904 0ZM40.3188 28.1594C39.6312 36.8287 54.368 29.7696 41.0841 16.9265C49.7887 18.0988 57.6501 27.2319 56.6642 35.9785C54.5367 55.198 27.3721 43.0506 40.3188 28.1594ZM67.8206 70.0248L61.1656 59.1913L54.5107 70.0248L47.0904 82.0949L39.6701 70.0248L33.0152 59.1913L26.3603 70.0248H11.5067L25.5819 47.1083H40.4355L47.0904 57.9418L53.7453 47.1083H68.5989L82.6871 70.0248H67.8206Z" fill="black"/>
</svg>
